<svg width="358" height="137" viewBox="0 0 358 137" fill="none" xmlns="http://www.w3.org/2000/svg">
<path d="M72.2413 73.3243C72.0607 77.418 71.2178 81.3311 69.7128 85.0636C68.268 88.7358 66.1309 92.0168 63.3014 94.9064C60.5322 97.7961 57.0405 100.054 52.8264 101.679C48.6726 103.304 43.8264 104.117 38.2879 104.117C32.9902 104.117 28.0236 103.365 23.3881 101.86C18.7526 100.294 14.659 98.0068 11.1071 94.9967C7.61543 91.9867 4.87629 88.2843 2.88965 83.8896C0.963217 79.495 0 74.4682 0 68.8093C0 63.1504 0.993317 58.1236 2.97995 53.7289C4.96659 49.3342 7.73583 45.6319 11.2877 42.6218C14.8998 39.6118 19.0536 37.3542 23.7493 35.8492C28.5052 34.284 33.6825 33.5014 39.2812 33.5014C46.7461 33.5014 53.1876 34.6452 58.6057 36.9328C64.0238 39.2205 68.3884 42.3509 71.6995 46.3242C75.0105 50.2974 77.1477 54.9028 78.1109 60.1403H59.2378C58.6358 57.8527 57.4017 55.8961 55.5355 54.2707C53.7294 52.5851 51.4418 51.3209 48.6726 50.4781C45.9635 49.575 42.8631 49.1235 39.3715 49.1235C35.1574 49.1235 31.5153 49.876 28.445 51.3811C25.3747 52.8259 22.9968 55.0232 21.3112 57.9731C19.6255 60.8627 18.7827 64.4748 18.7827 68.8093C18.7827 73.204 19.6857 76.9063 21.4918 79.9164C23.2978 82.9264 25.8564 85.184 29.1674 86.689C32.5387 88.194 36.4818 88.9465 40.9969 88.9465C45.3916 88.9465 49.2746 88.3445 52.6458 87.1405C56.0171 85.8763 58.696 84.0401 60.6827 81.6321C62.7295 79.2241 63.9034 76.3344 64.2044 72.9631L72.2413 73.3243ZM42.8029 80.8194V67.6354H78.743V102.672H65.4686L62.8499 75.8528L66.3717 80.8194H42.8029Z" fill="white"/>
<path d="M108.416 43.1636H127.198V102.672H108.416V43.1636ZM82.5893 34.9462H153.024V51.5617H82.5893V34.9462Z" fill="white"/>
<path d="M261.258 0L247.502 9.72918L261.258 19.4584L275.013 9.72918L261.258 0Z" fill="#F6AE31"/>
<path d="M261.258 19.4584L247.502 29.1872L261.258 38.9164L275.013 29.1872L261.258 19.4584Z" fill="#F6AE31"/>
<path d="M288.769 19.4582L275.013 29.1872L288.769 38.9166L302.54 29.1874L288.769 19.4582Z" fill="#F6AE31"/>
<path d="M261.258 38.9175L247.502 48.6467L261.258 58.3758L275.013 48.6467L261.258 38.9175Z" fill="#F6AE31"/>
<path d="M288.769 38.9166L275.013 48.6467L288.769 58.3759L302.54 48.6467L288.769 38.9166Z" fill="#F6AE31"/>
<path d="M316.297 38.9175L302.541 48.6467L316.297 58.3758L330.053 48.6467L316.297 38.9175Z" fill="#F6AE31"/>
<path d="M261.258 58.3758L247.502 68.1206L261.258 77.8498L275.013 68.1206L261.258 58.3758Z" fill="#F6AE31"/>
<path d="M288.769 58.3759L275.013 68.1206L288.769 77.8498L302.54 68.1206L288.769 58.3759Z" fill="#F6AE31"/>
<path d="M316.297 58.3758L302.541 68.1206L316.297 77.8498L330.053 68.1206L316.297 58.3758Z" fill="#F6AE31"/>
<path d="M343.812 58.3763L330.057 68.1204L343.812 77.8496L357.568 68.1204L343.812 58.3763Z" fill="#F6AE31"/>
<path d="M261.258 77.8498L247.502 87.5788L261.258 97.308L275.013 87.5788L261.258 77.8498Z" fill="#F6AE31"/>
<path d="M288.769 77.8498L275.013 87.5788L288.769 97.3082L302.54 87.579L288.769 77.8498Z" fill="#F6AE31"/>
<path d="M316.297 77.8498L302.541 87.5788L316.297 97.308L330.053 87.5788L316.297 77.8498Z" fill="#F6AE31"/>
<path d="M261.258 97.3091L247.502 107.038L261.258 116.767L275.013 107.038L261.258 97.3091Z" fill="#F6AE31"/>
<path d="M288.769 97.3082L275.013 107.038L288.769 116.768L302.54 107.038L288.769 97.3082Z" fill="#F6AE31"/>
<path d="M261.258 116.767L247.502 126.496L261.258 136.225L275.013 126.496L261.258 116.767Z" fill="#F6AE31"/>
<path d="M233.754 0L219.998 9.72918L233.754 19.4584L247.509 9.72918L233.754 0Z" fill="#F6AE31"/>
<path d="M233.754 19.4584L219.998 29.1872L233.754 38.9164L247.509 29.1872L233.754 19.4584Z" fill="#F6AE31"/>
<path d="M233.754 38.9175L219.998 48.6467L233.754 58.3758L247.509 48.6467L233.754 38.9175Z" fill="#F6AE31"/>
<path d="M233.754 77.8496L219.998 87.5788L233.754 97.308L247.509 87.5788L233.754 77.8496Z" fill="#F6AE31"/>
<path d="M233.754 97.3091L219.998 107.038L233.754 116.767L247.509 107.038L233.754 97.3091Z" fill="#F6AE31"/>
<path d="M233.754 116.767L219.998 126.496L233.754 136.225L247.509 126.496L233.754 116.767Z" fill="#F6AE31"/>
<path d="M206.222 0L192.467 9.72918L206.222 19.4584L219.993 9.72918L206.222 0Z" fill="#F6AE31"/>
<path d="M206.222 19.4584L192.467 29.1872L206.222 38.9164L219.993 29.1872L206.222 19.4584Z" fill="#F6AE31"/>
<path d="M206.222 97.3091L192.467 107.038L206.222 116.767L219.993 107.038L206.222 97.3091Z" fill="#F6AE31"/>
<path d="M206.222 116.767L192.467 126.496L206.222 136.225L219.993 126.496L206.222 116.767Z" fill="#F6AE31"/>
<path d="M178.715 0L164.959 9.72918L178.715 19.4584L192.47 9.72918L178.715 0Z" fill="#F6AE31"/>
<path d="M178.715 116.767L164.959 126.496L178.715 136.225L192.47 126.496L178.715 116.767Z" fill="#F6AE31"/>
</svg>
