<svg width="847" height="137" viewBox="0 0 847 137" fill="none" xmlns="http://www.w3.org/2000/svg">
<path d="M750.582 0L736.826 9.72918L750.582 19.4584L764.338 9.72918L750.582 0Z" fill="#F6AE31"/>
<path d="M750.582 19.4584L736.826 29.1872L750.582 38.9164L764.338 29.1872L750.582 19.4584Z" fill="#F6AE31"/>
<path d="M778.094 19.4582L764.338 29.1872L778.094 38.9166L791.864 29.1874L778.094 19.4582Z" fill="#F6AE31"/>
<path d="M750.582 38.9175L736.826 48.6467L750.582 58.3758L764.338 48.6467L750.582 38.9175Z" fill="#F6AE31"/>
<path d="M778.094 38.9166L764.338 48.6467L778.094 58.3759L791.864 48.6467L778.094 38.9166Z" fill="#F6AE31"/>
<path d="M805.621 38.9175L791.866 48.6467L805.621 58.3758L819.377 48.6467L805.621 38.9175Z" fill="#F6AE31"/>
<path d="M750.582 58.3758L736.826 68.1206L750.582 77.8498L764.338 68.1206L750.582 58.3758Z" fill="#F6AE31"/>
<path d="M778.094 58.3759L764.338 68.1206L778.094 77.8498L791.864 68.1206L778.094 58.3759Z" fill="#F6AE31"/>
<path d="M805.621 58.3758L791.866 68.1206L805.621 77.8498L819.377 68.1206L805.621 58.3758Z" fill="#F6AE31"/>
<path d="M833.137 58.3763L819.381 68.1204L833.137 77.8496L846.892 68.1204L833.137 58.3763Z" fill="#F6AE31"/>
<path d="M750.582 77.8498L736.826 87.5788L750.582 97.308L764.338 87.5788L750.582 77.8498Z" fill="#F6AE31"/>
<path d="M778.094 77.8498L764.338 87.5788L778.094 97.3082L791.864 87.579L778.094 77.8498Z" fill="#F6AE31"/>
<path d="M805.621 77.8498L791.866 87.5788L805.621 97.308L819.377 87.5788L805.621 77.8498Z" fill="#F6AE31"/>
<path d="M750.582 97.3091L736.826 107.038L750.582 116.767L764.338 107.038L750.582 97.3091Z" fill="#F6AE31"/>
<path d="M778.094 97.3082L764.338 107.038L778.094 116.768L791.864 107.038L778.094 97.3082Z" fill="#F6AE31"/>
<path d="M750.582 116.767L736.826 126.496L750.582 136.225L764.338 126.496L750.582 116.767Z" fill="#F6AE31"/>
<path d="M723.078 0L709.323 9.72918L723.078 19.4584L736.834 9.72918L723.078 0Z" fill="#F6AE31"/>
<path d="M723.078 19.4584L709.323 29.1872L723.078 38.9164L736.834 29.1872L723.078 19.4584Z" fill="#F6AE31"/>
<path d="M723.078 38.9175L709.323 48.6467L723.078 58.3758L736.834 48.6467L723.078 38.9175Z" fill="#F6AE31"/>
<path d="M723.078 77.8496L709.323 87.5788L723.078 97.308L736.834 87.5788L723.078 77.8496Z" fill="#F6AE31"/>
<path d="M723.078 97.3091L709.323 107.038L723.078 116.767L736.834 107.038L723.078 97.3091Z" fill="#F6AE31"/>
<path d="M723.078 116.767L709.323 126.496L723.078 136.225L736.834 126.496L723.078 116.767Z" fill="#F6AE31"/>
<path d="M695.547 0L681.791 9.72918L695.547 19.4584L709.317 9.72918L695.547 0Z" fill="#F6AE31"/>
<path d="M695.547 19.4584L681.791 29.1872L695.547 38.9164L709.317 29.1872L695.547 19.4584Z" fill="#F6AE31"/>
<path d="M695.547 97.3091L681.791 107.038L695.547 116.767L709.317 107.038L695.547 97.3091Z" fill="#F6AE31"/>
<path d="M695.547 116.767L681.791 126.496L695.547 136.225L709.317 126.496L695.547 116.767Z" fill="#F6AE31"/>
<path d="M668.039 0L654.284 9.72918L668.039 19.4584L681.795 9.72918L668.039 0Z" fill="#F6AE31"/>
<path d="M668.039 116.767L654.284 126.496L668.039 136.225L681.795 126.496L668.039 116.767Z" fill="#F6AE31"/>
<path d="M57.1888 71.7675C57.0458 75.0082 56.3786 78.106 55.1872 81.0607C54.0434 83.9678 52.3516 86.5651 50.1117 88.8527C47.9194 91.1402 45.1553 92.9274 41.8193 94.2141C38.5309 95.5009 34.6945 96.1443 30.3101 96.1443C26.1162 96.1443 22.1845 95.5486 18.5149 94.3571C14.8453 93.118 11.6046 91.307 8.79278 88.9242C6.02865 86.5413 3.86024 83.6104 2.28755 80.1314C0.762517 76.6524 0 72.673 0 68.1932C0 63.7134 0.786346 59.7341 2.35904 56.2551C3.93173 52.7761 6.12397 49.8452 8.93575 47.4623C11.7952 45.0794 15.0835 43.2923 18.8008 42.1009C22.5657 40.8618 26.6643 40.2422 31.0964 40.2422C37.0059 40.2422 42.1053 41.1477 46.3944 42.9587C50.6836 44.7697 54.1387 47.2478 56.7599 50.3932C59.381 53.5386 61.0729 57.1844 61.8354 61.3306H46.8948C46.4182 59.5196 45.4413 57.9707 43.9639 56.684C42.5342 55.3496 40.7232 54.3488 38.531 53.6816C36.3864 52.9667 33.932 52.6093 31.1679 52.6093C27.8319 52.6093 24.9486 53.205 22.5181 54.3964C20.0876 55.5402 18.2051 57.2797 16.8707 59.6149C15.5363 61.9025 14.8691 64.7619 14.8691 68.1932C14.8691 71.6722 15.5839 74.6031 17.0137 76.986C18.4434 79.3689 20.4688 81.156 23.09 82.3475C25.7588 83.5389 28.8803 84.1346 32.4546 84.1346C35.9336 84.1346 39.0075 83.658 41.6763 82.7049C44.3451 81.7041 46.4659 80.2505 48.0386 78.3443C49.6589 76.438 50.5883 74.1504 50.8265 71.4816L57.1888 71.7675ZM33.8844 77.7009V67.2639H62.3358V95.0005H51.8273L49.7543 73.7691L52.5422 77.7009H33.8844Z" fill="white"/>
<path d="M81.413 64.8334H100.929C103.312 64.8334 105.17 64.2853 106.505 63.1892C107.839 62.0931 108.506 60.5681 108.506 58.6141C108.506 56.6125 107.839 55.0875 106.505 54.039C105.17 52.9429 103.312 52.3948 100.929 52.3948H79.34L85.9882 45.3177V95.0005H71.1906V41.386H103.002C107.1 41.386 110.675 42.1247 113.725 43.6021C116.775 45.0318 119.158 47.0334 120.873 49.6069C122.589 52.1327 123.447 55.1351 123.447 58.6141C123.447 61.9978 122.589 64.9764 120.873 67.5499C119.158 70.1234 116.775 72.125 113.725 73.5547C110.675 74.9844 107.1 75.6993 103.002 75.6993H81.413V64.8334ZM89.4195 69.9089H106.076L125.305 95.0005H108.149L89.4195 69.9089Z" fill="white"/>
<path d="M141.385 84.7065V72.7683H178.344V84.7065H141.385ZM169.908 41.386L194.285 95.0005H178.487L158.042 47.6768H162.331L141.814 95.0005H126.016L150.393 41.386H169.908Z" fill="white"/>
<path d="M249.045 84.635L244.47 85.5643V41.386H258.839V95.0005H240.181L209.228 50.8936L213.731 49.9643V95.0005H199.363V41.386H218.521L249.045 84.635Z" fill="white"/>
<path d="M295.56 41.386C301.898 41.386 307.45 42.5059 312.216 44.7458C317.03 46.9381 320.747 50.0596 323.368 54.1105C326.037 58.1137 327.371 62.808 327.371 68.1932C327.371 73.5785 326.037 78.2966 323.368 82.3475C320.747 86.3507 317.03 89.4722 312.216 91.7121C307.45 93.9044 301.898 95.0005 295.56 95.0005H268.824V41.386H295.56ZM283.55 88.7812L276.473 81.8471H296.704C299.897 81.8471 302.661 81.299 304.996 80.2029C307.379 79.0591 309.214 77.4626 310.501 75.4133C311.787 73.3641 312.431 70.9574 312.431 68.1932C312.431 65.3815 311.787 62.9748 310.501 60.9732C309.214 58.9239 307.379 57.3512 304.996 56.2551C302.661 55.1113 299.897 54.5394 296.704 54.5394H276.473L283.55 47.6053V88.7812Z" fill="white"/>
<path d="M367.302 47.8912H382.171V95.0005H367.302V47.8912ZM346.857 41.386H402.616V54.5394H346.857V41.386Z" fill="white"/>
<path d="M436.292 96.1443C429.953 96.1443 424.378 94.9767 419.564 92.6414C414.798 90.3062 411.081 87.0417 408.412 82.8479C405.791 78.654 404.481 73.7691 404.481 68.1932C404.481 62.6173 405.791 57.7325 408.412 53.5386C411.081 49.3448 414.798 46.0802 419.564 43.745C424.378 41.4098 429.953 40.2422 436.292 40.2422C442.678 40.2422 448.254 41.4098 453.02 43.745C457.785 46.0802 461.503 49.3448 464.171 53.5386C466.84 57.7325 468.175 62.6173 468.175 68.1932C468.175 73.7691 466.84 78.654 464.171 82.8479C461.503 87.0417 457.785 90.3062 453.02 92.6414C448.254 94.9767 442.678 96.1443 436.292 96.1443ZM436.292 82.9194C439.771 82.9194 442.773 82.3236 445.299 81.1322C447.825 79.9408 449.755 78.2489 451.089 76.0567C452.472 73.8645 453.163 71.2433 453.163 68.1932C453.163 65.1432 452.472 62.522 451.089 60.3298C449.755 58.1375 447.825 56.4457 445.299 55.2543C442.773 54.0628 439.771 53.4671 436.292 53.4671C432.861 53.4671 429.882 54.0628 427.356 55.2543C424.83 56.4457 422.876 58.1375 421.494 60.3298C420.112 62.522 419.421 65.1432 419.421 68.1932C419.421 71.2433 420.112 73.8645 421.494 76.0567C422.876 78.2489 424.83 79.9408 427.356 81.1322C429.882 82.3236 432.861 82.9194 436.292 82.9194Z" fill="white"/>
<path d="M489.895 71.0527C489.895 73.4832 490.348 75.604 491.253 77.4149C492.207 79.1783 493.589 80.5365 495.4 81.4896C497.258 82.4428 499.522 82.9194 502.191 82.9194C504.907 82.9194 507.171 82.4428 508.982 81.4896C510.793 80.5365 512.151 79.1783 513.057 77.4149C513.962 75.604 514.415 73.4832 514.415 71.0527V41.386H529.284V71.7675C529.284 76.6762 528.14 80.9654 525.853 84.635C523.613 88.257 520.467 91.0926 516.417 93.1419C512.366 95.1435 507.624 96.1443 502.191 96.1443C496.806 96.1443 492.064 95.1435 487.965 93.1419C483.914 91.0926 480.745 88.257 478.457 84.635C476.218 80.9654 475.098 76.6762 475.098 71.7675V41.386H489.895V71.0527Z" fill="white"/>
<path d="M598.12 72.5539C597.596 77.272 595.975 81.4181 593.259 84.9924C590.542 88.5191 586.968 91.2594 582.536 93.2133C578.152 95.1673 573.1 96.1443 567.381 96.1443C561.138 96.1443 555.681 94.9767 551.011 92.6414C546.34 90.3062 542.694 87.0417 540.073 82.8479C537.5 78.654 536.213 73.7691 536.213 68.1932C536.213 62.6173 537.5 57.7325 540.073 53.5386C542.694 49.3448 546.34 46.0802 551.011 43.745C555.681 41.4098 561.138 40.2422 567.381 40.2422C573.1 40.2422 578.152 41.2192 582.536 43.1731C586.968 45.1271 590.542 47.8912 593.259 51.4655C595.975 54.9922 597.596 59.1145 598.12 63.8326H583.251C582.774 61.545 581.845 59.6149 580.463 58.0422C579.081 56.4219 577.27 55.1828 575.03 54.325C572.838 53.4671 570.288 53.0382 567.381 53.0382C564.045 53.0382 561.162 53.6578 558.731 54.8968C556.301 56.0883 554.442 57.8278 553.155 60.1153C551.868 62.3552 551.225 65.0479 551.225 68.1932C551.225 71.3386 551.868 74.0551 553.155 76.3426C554.442 78.5825 556.301 80.322 558.731 81.5611C561.162 82.7526 564.045 83.3483 567.381 83.3483C570.288 83.3483 572.838 82.9432 575.03 82.133C577.27 81.3228 579.081 80.1076 580.463 78.4872C581.845 76.8669 582.774 74.8891 583.251 72.5539H598.12Z" fill="white"/>
<path d="M605.311 41.386H620.109V95.0005H605.311V41.386ZM647.488 41.386H662.357V95.0005H647.488V41.386ZM613.603 61.1876H653.635V74.341H613.603V61.1876Z" fill="white"/>
</svg>
